<mxfile host="app.diagrams.net" modified="2023-12-17T05:06:07.870Z" agent="Mozilla/5.0 (Windows NT 10.0; Win64; x64) AppleWebKit/537.36 (KHTML, like Gecko) Chrome/121.0.0.0 Safari/537.36 Edg/121.0.0.0" etag="0If4WTgVrd-BMM6LxlcL" version="22.1.11" type="github">
  <diagram name="Page-1" id="kQclkC6t_OZ5plzZZ3qX">
    <mxGraphModel dx="1082" dy="584" grid="1" gridSize="10" guides="1" tooltips="1" connect="1" arrows="1" fold="1" page="1" pageScale="1" pageWidth="850" pageHeight="1100" math="0" shadow="0">
      <root>
        <mxCell id="0" />
        <mxCell id="1" parent="0" />
        <mxCell id="Rq47lQsszGIYjsCbyuHM-2" value="" style="sketch=0;html=1;aspect=fixed;strokeColor=none;shadow=0;fillColor=#3B8DF1;verticalAlign=top;labelPosition=center;verticalLabelPosition=bottom;shape=mxgraph.gcp2.website" vertex="1" parent="1">
          <mxGeometry x="400" y="620" width="100" height="97" as="geometry" />
        </mxCell>
      </root>
    </mxGraphModel>
  </diagram>
</mxfile>
